<svg xmlns="http://www.w3.org/2000/svg" viewBox="0 0 100 130" width="100" height="130">
  <!-- Shadow/glow -->
  <ellipse cx="50" cy="128" rx="18" ry="8" fill="rgba(0,255,0,0.4)"/>
  <!-- Arms -->
  <rect x="2"  y="38" width="14" height="35" rx="5" fill="#00E5FF"/>
  <rect x="84" y="38" width="14" height="35" rx="5" fill="#00E5FF"/>
  <rect x="7"  y="62" width="5" height="10" fill="#FF0000"/>
  <rect x="88" y="62" width="5" height="10" fill="#FF0000"/>
  <!-- Body -->
  <ellipse cx="50" cy="75" rx="30" ry="35" fill="#111111"/>
  <!-- Eye ring -->
  <circle cx="50" cy="75" r="20" fill="#00E5FF"/>
  <circle cx="50" cy="75" r="14" fill="#111111"/>
  <!-- Pupil -->
  <circle cx="50" cy="75" r="6"  fill="#FF0000"/>
  <!-- Head dome -->
  <path d="M 25 28 A 25 25 0 0 1 75 28 Z" fill="#000000"/>
  <!-- Headband -->
  <rect x="30" y="22" width="40" height="12" rx="4" fill="#00E5FF"/>
  <!-- Antenna arcs -->
  <path d="M 36 28 A 4 4 0 0 1 44 28" stroke="#000" stroke-width="2" fill="none"/>
  <path d="M 56 28 A 4 4 0 0 1 64 28" stroke="#000" stroke-width="2" fill="none"/>
</svg>
